<svg id="Layer_1" data-name="Layer 1" xmlns="http://www.w3.org/2000/svg" viewBox="0 0 100 100"><defs><style>.cls-1{fill:orange;fill-rule:evenodd;}</style></defs><path class="cls-1" d="M81.63,43.1a4.51,4.51,0,0,1-1.83.54c-.46,0-.91,0-1.37,0-1.3.11-2.53,1-3.8.67-.85-.19-1.67-.88-2.49-.61a2.6,2.6,0,0,1-.82.29,1.32,1.32,0,0,1-.88-.52,11.09,11.09,0,0,0-4.91-2.85c-.5-.13-1.12-.37-1.14-.89s.54-.76,1-.87a7.18,7.18,0,0,1,5.15.75c1.07.62,2,1.51,3.07,2.08a3.26,3.26,0,0,0,3.48,0c1.18-.92,1.26-2.91,2.58-3.62.26-.13.6-.34.5-.61s-.41-.21-.65-.15a26.34,26.34,0,0,1-3.45.95,3.56,3.56,0,0,1-3.28-1.08A2,2,0,0,1,74.43,37a7.63,7.63,0,0,0,1.69.32,2.89,2.89,0,0,0,1.92-1,8.75,8.75,0,0,0,1.23-1.83L80.64,32a2.38,2.38,0,0,0,.43-1.85c-.24-.73-1.17-1.28-.94-2s2.26.55,2.46.9c.62,1,.28,2.5.66,3.63a11.47,11.47,0,0,0,.83,1.64,9.63,9.63,0,0,1,1.14,4.64A3.35,3.35,0,0,1,85,40.41a4.15,4.15,0,0,1-1.31,1.36A14,14,0,0,1,81.63,43.1Z"/><path class="cls-1" d="M71.21,33.87a.48.48,0,0,1-.3-.11c-.22-.22.13-.54.43-.62A11,11,0,0,1,74,33a5.5,5.5,0,0,0,2.58-.48,2.31,2.31,0,0,0,1.31-2.15,4.38,4.38,0,0,0-.93-1.88,8.91,8.91,0,0,1-1.43-5c0-.14,0-.3.13-.38a.41.41,0,0,1,.4,0c1.52.49,1.91,1.62,2.16,2.88a8.61,8.61,0,0,0,.92,3.17c.39.59,1,1.12,1,1.84a2,2,0,0,1-.22.74c-.87,1.95-2.21,3.88-4.23,4.46a8.76,8.76,0,0,1-3.19.13L69.12,36c-.11-.3.25-.55.55-.66a9.87,9.87,0,0,1,3-.54A2.18,2.18,0,0,0,71.21,33.87Z"/><path class="cls-1" d="M70.56,28a.69.69,0,0,0,0-.1c-.13-.27-.41-.48-.46-.78a1.07,1.07,0,0,1,.12-.6A23.61,23.61,0,0,1,72,23.17a2.09,2.09,0,0,1,.62-.7c.78-.46,1,.24,1,.84a1.2,1.2,0,0,0-1.14.42A2.19,2.19,0,0,0,72,24.9a3.77,3.77,0,0,0,2.14,3.86,13.46,13.46,0,0,1,2.51.93,1.25,1.25,0,0,1,.44.5c.26.65-.41,1.31-1.07,1.54a3.94,3.94,0,0,1-3.75-.67c-.17-.14-.33-.29-.51-.42a1.67,1.67,0,0,0-1.22-.28c-.2,0-.46.11-.59-.06s0-.35,0-.52C70.31,29.22,70.76,28.6,70.56,28Z"/><path class="cls-1" d="M74.07,25c.29.12.42.71.48,1.22,0,.29,0,.56.06.72a.65.65,0,0,1,0,.24c-.1.26-.48.22-.73.09A1.52,1.52,0,0,1,73,25.92C73.05,25.5,73.57,24.78,74.07,25Z"/><path class="cls-1" d="M76,21c0,.17,0,.37-.14.46s-.49-.1-.65-.31a4,4,0,0,0-4.49-1.17,1.89,1.89,0,0,0-.86.61,3.59,3.59,0,0,0-.26,2.07A9.26,9.26,0,0,1,69.25,25l-.51,2c-.12.49-.25,1-.4,1.46a16,16,0,0,1-2.84,4.95,1,1,0,0,1-.6.44c-.39.05-.71-.38-.71-.78a2.54,2.54,0,0,1,.41-1.11,12,12,0,0,0,1.32-4.17c.07-.59.1-1.18.14-1.76a8.51,8.51,0,0,1,.47-2.51c.23-.6.57-1.14.84-1.72a15.24,15.24,0,0,0,.94-3.28,5,5,0,0,1,1.21-2.72,3.13,3.13,0,0,1,2.71-.66,4,4,0,0,1,2.93,1.82A11.23,11.23,0,0,1,76,21Z"/><path class="cls-1" d="M64.59,35.14A21.79,21.79,0,0,1,69.1,32a5.36,5.36,0,0,1,1.53-.58c.51-.09,2.46.25,1.26.91-.63.35-1.39.37-2,.7-.87.46-1.39,1.4-2.18,2a5.79,5.79,0,0,1-1,.56,17.17,17.17,0,0,1-1.69.63.7.7,0,0,1-.63,0,.5.5,0,0,1-.12-.58,1.27,1.27,0,0,1,.3-.4Z"/><path class="cls-1" d="M82.26,14.42a3.79,3.79,0,0,1,2.62,1.05c.52.39.61.73.53,1.12s-.27.72-.42,1.2a4.15,4.15,0,0,0-.07,1.79c.11,1.08.23,2.17.37,3.25h0v.11c.1.78.2,1.57.31,2.35,0,.22.07.45.1.67l0-.31.23,1.66c-.07-.45-.13-.9-.2-1.35.07.66.16,1.32.28,2,0,.1,0,.2.05.3l.49,3.5a43.4,43.4,0,0,1,.35,6.64,9.48,9.48,0,0,1-.82,4,3.91,3.91,0,0,1-3.15,2.25c-.41,0-.93-.19-.89-.6a.87.87,0,0,1,.18-.36c.85-1,2.47-1.14,3.27-2.21a3.77,3.77,0,0,0,.5-2.61c-.06-.75-.19-1.49-.32-2.23a4.13,4.13,0,0,0-.34-1.2c-.18-.34-.45-.62-.63-.95a4.34,4.34,0,0,1-.39-1.33c-.14-.82-.29-1.64-.43-2.47a7.78,7.78,0,0,0-.45-1.72,3.72,3.72,0,0,0-3.36-2.18,1.51,1.51,0,0,1-.64-.07c-.5-.24-.43-1-.5-1.52-.16-1.26-1.37-2.16-1.61-3.4a3.53,3.53,0,0,1,0-1.17A7.87,7.87,0,0,1,81,14.92,3.36,3.36,0,0,1,82.26,14.42Z"/><path class="cls-1" d="M68.53,10.88h0a1.14,1.14,0,0,1,.61-.57c.94-.42,2.14-.07,3-.68a7.14,7.14,0,0,1,.62-.5A1.35,1.35,0,0,1,74,9.21a4.59,4.59,0,0,1,1,.85c1.13,1.19,2.5,2.36,4.13,2.41.44,0,1.35-.06,1.6.44s-.5,1.34-.87,1.67a9.74,9.74,0,0,0-3.08,4.92.41.41,0,0,1-.15.29.27.27,0,0,1-.36-.17.9.9,0,0,1,0-.46,5.22,5.22,0,0,0-.31-2.65,10.56,10.56,0,0,0-1.23-2.07l-.76-1.08a4.14,4.14,0,0,0-2.22-1.92,5.05,5.05,0,0,0-2.2.26.94.94,0,0,1-.77-.06A.67.67,0,0,1,68.53,10.88Z"/><path class="cls-1" d="M68.49,12.87a20.12,20.12,0,0,0,2.18-.33,1.76,1.76,0,0,1,2.14,1.74c-.65.3-1.41,0-2.13.05a3.56,3.56,0,0,0-2.8,2.54c-.48,1.25-.63,2.63-1.19,3.85-.36.79-.89,1.49-1.24,2.29-1,2.41-.27,5.34-1.35,7.72a1.62,1.62,0,0,1-.4.59,1.58,1.58,0,0,1-1.7,0,1,1,0,0,0-.49-.15c-.48.06-.46.84-.12,1.2s.86.59,1,1.06A1.16,1.16,0,0,1,62,34.65a3.3,3.3,0,0,1-1.3.52c-.09.42.31.76.63,1a7.91,7.91,0,0,1,2.43,5.22,23.12,23.12,0,0,1-.4,5.86c-.23,1.5-.46,3-.68,4.5,0,.15-.07.33-.21.37s-.31-.12-.4-.26a11.43,11.43,0,0,0-3-3.13c-.57-.4-1.26-1-.94-1.65.21-.38.7-.47,1.11-.61s.84-.55.66-.94A4.58,4.58,0,0,1,56.7,44a4,4,0,0,1-.13-3.41,14.45,14.45,0,0,1,.84-2c.74-1.43,1.78-2.83,1.74-4.45,0-1.27-.72-2.47-.63-3.73.11-1.64,1.46-2.86,2.23-4.3,1.75-3.31.34-7.67,2.07-11,.18-.35.5-.72.87-.62s.58,1.08,1.12,1.1c.37,0,.57-.45.53-.82a4.56,4.56,0,0,1-.16-1.09,1.39,1.39,0,0,1,1.42-1,5.81,5.81,0,0,1,1.17.12A5.87,5.87,0,0,0,68.49,12.87Z"/><path class="cls-1" d="M49.72,16.12c.24-1.94-.23-4.08.75-5.76A1.47,1.47,0,0,1,51,9.82a1.48,1.48,0,0,1,1.41.08,13.73,13.73,0,0,0,1.29.73.46.46,0,0,0,.44,0c.18-.12.14-.4.07-.61a4,4,0,0,0-.94-1.51A.64.64,0,0,1,53,8.07c0-.4.62-.38.95-.16s.8.47,1.05.17-.06-.73-.35-1-.62-.68-.38-1a.57.57,0,0,1,.28-.17,1.77,1.77,0,0,1,1.1.16,10.77,10.77,0,0,1,2.86,1.7c.26,0,.18-.45,0-.66A6.68,6.68,0,0,0,56.73,5.6c-.45-.28-1-.67-.91-1.2a.81.81,0,0,1,.73-.55,2.27,2.27,0,0,1,1,.19L60.15,5a17.2,17.2,0,0,1,3.74,1.68,9.65,9.65,0,0,1,2.61,3,1.67,1.67,0,0,1,.4,1.15c-.06.42-.54.76-.89.55-.19-.12-.29-.35-.49-.44s-.58.1-.74.36a2.83,2.83,0,0,1-.49.76c-.46.37-1.13.09-1.69-.1a4.92,4.92,0,0,0-5.33,1.57c-1.26,1.58-1.43,3.79-1.33,5.83s.4,4.13-.12,6.1c-.25,1-.7,2-.28,3,1.15-.66,1.33-2.25,1.41-3.6.12-2.09.3-4.18.55-6.25a8.37,8.37,0,0,1,.63-2.63,2.9,2.9,0,0,1,2-1.67,1.23,1.23,0,0,1,1.19.36,1.36,1.36,0,0,1,.22.59,6.36,6.36,0,0,1-.05,2c-.21,1.59-.43,3.17-.64,4.76a8.4,8.4,0,0,1-.63,2.59c-.75,1.56-2.44,2.62-2.78,4.32a5.17,5.17,0,0,0,0,1.47q.12,1.88.39,3.72a5.52,5.52,0,0,1,.1,1.81,1.78,1.78,0,0,1-1,1.42,2.47,2.47,0,0,1-2.24-.57,19.12,19.12,0,0,1-3.58-3.15c-1.35-1.52-2.5-3.41-2.38-5.44.06-.91.37-1.78.41-2.68.06-1.3-.44-2.57-.47-3.87a18.48,18.48,0,0,1,.91-4.54C49.62,16.77,49.68,16.44,49.72,16.12Z"/><path class="cls-1" d="M40.42,29.33a4.6,4.6,0,0,1,.1-1.38A9.21,9.21,0,0,1,41,26.6c.34-.86.75-1.69,1.16-2.51a2.73,2.73,0,0,1,.94-1.24c.69-.4,1.58-.14,2.33-.41a.63.63,0,0,0,.34-.26c.21-.38-.33-.77-.76-.75s-.89.21-1.27,0-.45-1-.37-1.49c.18-1.23.35-2.46.53-3.68a4,4,0,0,1,.45-1.56,3.78,3.78,0,0,1,2.15-1.31c2.6-.83,2.77,1.81,2.33,3.78-.25,1.15-.68,2.27-.86,3.43-.3,2,.1,3.95.07,5.93A15.53,15.53,0,0,0,48.12,31c.64,2.24,2.72,3.68,4.18,5.48a.66.66,0,0,1-.06,1.05L49,41.28a3.16,3.16,0,0,1-1,.9,2.48,2.48,0,0,1-2.8-1,4.83,4.83,0,0,1-1-3.21.91.91,0,0,1,.36-.79c.35-.18.82.11,1.15-.1s.29-.57.37-.89.45-.65.7-.43a1.68,1.68,0,0,0-.8-1.35,6.41,6.41,0,0,0-1.46-.66C42.49,33,40.6,31.43,40.42,29.33Z"/><path class="cls-1" d="M48.32,55.72c-.18,0-.4,0-.49-.19s.05-.37.17-.5c.36-.41.71-.83,1.09-1.21a2.11,2.11,0,0,1,.63-.44,1.15,1.15,0,0,1,1,.07,5.35,5.35,0,0,1,.7.41c.35.23.68.49,1,.73l.17.14a.45.45,0,0,1,.17.45.44.44,0,0,1-.37.33l-.43.07A27.85,27.85,0,0,1,48.32,55.72Z"/><path class="cls-1" d="M48.68,58.14A11.66,11.66,0,0,1,48,59.28a.78.78,0,0,1-1.11.27,2.92,2.92,0,0,1-1.2-1l-.08-.13c-.12-.24-.1-.35.15-.45s.75-.26,1.13-.39a4.62,4.62,0,0,1,1.34,0,1,1,0,0,1,.29.1A.32.32,0,0,1,48.68,58.14Z"/><path class="cls-1" d="M47.63,51.2a.94.94,0,0,1-.28.21,5.44,5.44,0,0,1-.5.22.85.85,0,0,0-.57.65,2,2,0,0,0,.18.62A1.11,1.11,0,0,1,46,54.15a.35.35,0,0,1-.31,0,.42.42,0,0,1-.14-.24,2.09,2.09,0,0,1-.09-1.28,3.35,3.35,0,0,1,.37-.63A3.59,3.59,0,0,0,46,49.24a1.51,1.51,0,0,1-.07-.48.42.42,0,0,1,.26-.37c.19-.06.38.09.5.24a6.54,6.54,0,0,1,1.08,1.44A1.09,1.09,0,0,1,47.63,51.2Z"/><path class="cls-1" d="M44.3,46.62c-.23,0-.46-.06-.69-.07-1.06-.07-2,.52-3.08.63a.44.44,0,0,1-.32,0c-.18-.13-.09-.42,0-.62a3.4,3.4,0,0,1,.61-.93A3.21,3.21,0,0,1,41.92,45l1.27-.55a.64.64,0,0,0-.42-.53h-.05c-.21-.08-.43-.11-.63-.2-.78-.33-1-1.33-1.1-2.19a.66.66,0,0,1,.08-.5.56.56,0,0,1,.27-.15,2.66,2.66,0,0,1,.79-.12,3.09,3.09,0,0,1,.95.15,6,6,0,0,1,1.37.78,4.32,4.32,0,0,1,1.9,3.25A2,2,0,0,1,44.3,46.62Z"/><path class="cls-1" d="M41,35.87a2.7,2.7,0,0,1,.57,2,3.2,3.2,0,0,1-.72,1.23l-1,1.2a1.43,1.43,0,0,0-.23.37,1.5,1.5,0,0,0-.09.52,12.42,12.42,0,0,1-.28,3.4,8.32,8.32,0,0,1-1.63,2.68,74.72,74.72,0,0,1-7,7.48,1.12,1.12,0,0,1-.82.42A7.12,7.12,0,0,1,31,52.66a64.67,64.67,0,0,0,3.54-6.22c.25-.52.49-1,.72-1.57a10.83,10.83,0,0,0,.8-2.41,14.14,14.14,0,0,0,.12-2.52,44.69,44.69,0,0,1,1-9.38,2.3,2.3,0,0,1,.42-1c.39-.44.94-.39,1.14.14a4.79,4.79,0,0,1,.8,2A12.58,12.58,0,0,0,39.89,34a6.7,6.7,0,0,0,1,1.68Z"/><path class="cls-1" d="M27.56,51.49a10.66,10.66,0,0,0-.34,2,2.72,2.72,0,0,1-.88,1.79,2.16,2.16,0,0,1-2.32,0,6.68,6.68,0,0,1-1.77-1.71L20.11,50.9c-.23-.29-.59-.61-.92-.45a.59.59,0,0,0-.27.63,1.78,1.78,0,0,0,.33.66l2.59,3.71c.24.33.39.93,0,1a.67.67,0,0,1-.5-.16,26.12,26.12,0,0,1-3.92-3.28.92.92,0,0,0-.62-.36.59.59,0,0,0-.46.7,1.57,1.57,0,0,0,.47.8A12.76,12.76,0,0,0,20.53,57a2,2,0,0,1-2.2.75,3.51,3.51,0,0,1-2-1.74,10.7,10.7,0,0,1-.91-2.6q-.78-3-1.55-6.07a7.78,7.78,0,0,0-1.35-3.21,16.82,16.82,0,0,0-2.51-2,1,1,0,0,1-.4-.53A.79.79,0,0,1,9.76,41a1.78,1.78,0,0,1,1.78-.39c.63.15,1.21.45,1.85.54a2.73,2.73,0,0,0,2.24-.76,7.49,7.49,0,0,1,.74-.75c.8-.59,1.91-.28,2.84.08,4.14,1.63,9.15,4.16,10.42,8.89a11.58,11.58,0,0,1-.45,5.76,1.06,1.06,0,0,1-.23.49.34.34,0,0,1-.48,0,.54.54,0,0,1-.06-.42,4.45,4.45,0,0,0,0-.73A4.32,4.32,0,0,0,27.56,51.49Z"/><path class="cls-1" d="M33.82,34.12c0,.13.1.25.16.38a.63.63,0,0,0,.26.32c.34.14.56-.38.56-.76a24.77,24.77,0,0,1,.11-4.72.78.78,0,0,1,.27-.54c.7-.47.75,1.12.75,1.39,0,3-.1,6.06-.32,9.07-.06.8-.13,1.59-.26,2.38a15.17,15.17,0,0,1-1.61,4.72c-.18.31-.57.66-.83.4a.57.57,0,0,1-.13-.34l-.22-1.32a.37.37,0,0,0-.1-.25c-.21-.2-.48.17-.52.45-.28,1.87.1,4-1,5.52a5.84,5.84,0,0,1-.66-2.07,12,12,0,0,0-1.11-3,13.8,13.8,0,0,0-10.56-7.22c-.21,0-.48-.1-.49-.32s.12-.25.23-.34c1.46-1.11,3.08-2.27,4.9-2.17a3.1,3.1,0,0,0,1.39-.05c.63-.28.87-1.07,1.43-1.46s1.44-.31,2.13-.55c1.6-.56,2.23-2.9,3.91-3.1a1,1,0,0,1,.55.07c.48.22.56.88.61,1.42A8.53,8.53,0,0,0,33.82,34.12Z"/><path class="cls-1" d="M28.55,32.24c-1.1,1-2.92.68-4,1.63a7.34,7.34,0,0,1-.6.51,4.91,4.91,0,0,1-1.93.36C20.64,35,19.63,36,18.4,36.6a9.57,9.57,0,0,1-3.2.61,3.13,3.13,0,0,1,.16-1.36,3.32,3.32,0,0,1,1.93-2.06c1.24-.46,2.62-.13,3.92-.37,1.58-.3,2.87-1.43,4.38-2a7.52,7.52,0,0,1,2.77-.52C29.36,31,29.22,31.65,28.55,32.24Z"/><path class="cls-1" d="M33.94,26.72a2.9,2.9,0,0,1,.35-.49,5.85,5.85,0,0,0,.45-.54c.09-.16.16-.34.25-.5a2.48,2.48,0,0,1,1-.84,3.18,3.18,0,0,1,1.27-.42,1.51,1.51,0,0,1,1.13.36,1.24,1.24,0,0,1,.13,1.25,8.46,8.46,0,0,1-1.32,2.59c-.11.14-.24.29-.42.29a.46.46,0,0,1-.35-.23c-.09-.12-.15-.26-.25-.37a.82.82,0,0,0-.82-.18,1.78,1.78,0,0,0-.72.46,2,2,0,0,1-.65.5.54.54,0,0,1-.69-.26.75.75,0,0,1,.1-.54A8.37,8.37,0,0,1,33.94,26.72Z"/><path class="cls-1" d="M18.67,24.83a1,1,0,0,1,.24-.4,5.88,5.88,0,0,1,4.65-1.88c1.4.09,2.75.69,4.15.6a22.79,22.79,0,0,1,2.58-.34,4.54,4.54,0,0,1,1.75.52c1,.51,1.5.94,1.38,2.16a3.27,3.27,0,0,1-1.31,2.34c-.23.16-.55.29-.78.12a.9.9,0,0,1-.2-.27,7.3,7.3,0,0,0-3-2.43c-.62-.34-1.38-.69-2-.33s-.72,1-1.24,1.36a1.73,1.73,0,0,1-1.66-.07,10.86,10.86,0,0,0-1.57-.77c-.85-.24-1.77,0-2.64-.13a.5.5,0,0,1-.26-.11A.33.33,0,0,1,18.67,24.83Z"/><path class="cls-1" d="M17.81,29.46a4.56,4.56,0,0,1,.5-.48,3,3,0,0,0,.44-.43c.4-.55.28-1.44.84-1.81s1-.07,1.56.1a6.32,6.32,0,0,0,4.47-.17,4.88,4.88,0,0,1,1.05-.38,2.27,2.27,0,0,1,1.78.62c.36.32,2,2,1.33,2.57-.34.27-.77-.16-1.14-.39-.78-.47-1.75,0-2.65,0s-1.83-.3-2.75-.29a3.57,3.57,0,0,0-3.14,2c-.34.72-.53,1.64-1.25,1.94S17,32.24,17,31.31A2.72,2.72,0,0,1,17.81,29.46Z"/><path class="cls-1" d="M4.31,44.1a2.81,2.81,0,0,1-.86-2,4,4,0,0,1,.72-1.88,40.67,40.67,0,0,1,2.41-3.53,7.18,7.18,0,0,0,1.36-2.26,8.74,8.74,0,0,1,.57-2.25C9.2,31.09,10.77,31,12,30.61a5.41,5.41,0,0,0,3.14-2.8,2.7,2.7,0,0,1,.58-.95c1.4-1.22,1.1,2,.78,2.6a11.47,11.47,0,0,1-1.82,2.13,2.79,2.79,0,0,0-.79,2.59c.12.38.37.84.09,1.12s-.76.08-1,.33-.12.69,0,1,.22.82-.09,1a.83.83,0,0,1-.54,0l-1.66-.37a2.28,2.28,0,0,0,1.16,1.84c.32.18.75.5.53.8a8.76,8.76,0,0,0-3.87.4,1,1,0,0,0-.66.48.86.86,0,0,0,0,.55c.33,1.17,1.65,1.67,2.63,2.38a8.45,8.45,0,0,1,2.91,4.75c.5,1.83.7,3.74,1.21,5.57A16.41,16.41,0,0,0,16,57.5c.11.2.14.54-.08.55a.45.45,0,0,1-.18-.07,9.39,9.39,0,0,1-3.33-3.14,9.32,9.32,0,0,1-.55-1.31c-1-2.88-2.38-5.85-4.88-7.59-.74-.51-1.56-.9-2.26-1.48Z"/><path class="cls-1" d="M16.56,61.09a1.9,1.9,0,0,0-.39,1.4,5.56,5.56,0,0,1,.14.91,2,2,0,0,1-.62,1.21,4.59,4.59,0,0,1-2,1.41,2.52,2.52,0,0,1-2.36-.39,5.85,5.85,0,0,0-.47-.4,1.5,1.5,0,0,0-1.12-.12c-1.26.26-2.39,1.41-3.64,1.07-1-.28-1.52-1.4-1.83-2.42A4.66,4.66,0,0,0,2.79,61c-.66-.44-1.6-.53-2-1.22a1.94,1.94,0,0,1-.2-.63,7.44,7.44,0,0,1,1-4.94,18.47,18.47,0,0,1,3.26-3.91A5.33,5.33,0,0,1,6.77,49a1.91,1.91,0,0,1,2.13.47,2.9,2.9,0,0,1,.47,1.45.7.7,0,0,1,0,.43c-.1.19-.34.23-.54.26L5.51,52a.76.76,0,0,0-.62.3.55.55,0,0,0,.24.68,1.47,1.47,0,0,0,.75.16l2.7.12c.23,0,.5,0,.62.24.21.36-.26.71-.63.88a9.07,9.07,0,0,0-2.49,1.67c.21.42.82.29,1.26.13a9.81,9.81,0,0,1,2.34-.53c.21,0,.47,0,.57.17s0,.43-.19.59c-1.19,1.32-2.87,2.27-3.52,3.93a.44.44,0,0,0,0,.4c.11.17.37.12.56,0,1.05-.52,1.72-1.66,2.81-2.1a.64.64,0,0,1,.68,0c.4.4-.41,1-.32,1.57s.87.56,1.27.22.6-.86,1-1.2a2.59,2.59,0,0,1,1.77-.43,6.2,6.2,0,0,1,2.8.5c.65.45.22.92-.21,1.37Z"/><path class="cls-1" d="M19.58,63.67l-1.21-.54a1.89,1.89,0,0,1-.7-.44.69.69,0,0,1-.1-.79,75.66,75.66,0,0,1,8-2.86l-.3,1.47a.61.61,0,0,0,0,.4c.12.22.47.18.65,0a5.19,5.19,0,0,0,.42-.62,1.09,1.09,0,0,1,1.76.21c.08.17.13.39.3.48s.51-.06.62-.29a5,5,0,0,0,.16-.77c.18-.74.89-1.19,1.51-1.61A21.38,21.38,0,0,0,34.42,55c.49-.53,1.06-1.14,1.79-1.12a5.8,5.8,0,0,0,1,.12c.34,0,.65-.46.43-.72a.91.91,0,0,0-.33-.2,2.24,2.24,0,0,1-.76-.74c-.12-.16-.26-.37-.17-.56a.5.5,0,0,1,.2-.21c1-.61,2.22-.24,3.3-.58a.58.58,0,0,0,.31-.18c.24-.31-.15-.74-.52-.88s-.85-.32-.85-.72a.81.81,0,0,1,.4-.62,5.14,5.14,0,0,1,4.38-.79c1.74.48,2.6,2,1.12,3.44a3.29,3.29,0,0,0-.53.59,2.57,2.57,0,0,0-.29.95,4,4,0,0,1-1,2.35c-.94.84-2.43.74-3.42,1.51S38.13,59.11,37,59.83s-2.53.29-3.67.83c-2,.94-2.18,4.15-4.24,4.86a11,11,0,0,1-1.64.26A31.61,31.61,0,0,0,24.31,67c-1.08.31-2.49.08-2.93-1-.23-.55-.15-1.24-.55-1.67a1.88,1.88,0,0,0-.66-.41Z"/><path class="cls-1" d="M38.86,63.31l0,0a1.79,1.79,0,0,1-1.38,2.39.34.34,0,0,1-.31-.09.35.35,0,0,1,0-.37c.32-.67,1.08-1.23.89-2a4.72,4.72,0,0,0-.27-.61,2.37,2.37,0,0,1,.08-1.55,6.68,6.68,0,0,1,1.76-3.13c1.22-1.08,3.06-1.41,4-2.78s1-.25.48.68a11.52,11.52,0,0,1-1.8,2.36L39.1,61.86a1.23,1.23,0,0,0-.45,1A2.13,2.13,0,0,0,38.86,63.31Z"/><path class="cls-1" d="M57.45,63.61a6.26,6.26,0,0,1,0,.75,2.2,2.2,0,0,1-.29,1,2.25,2.25,0,0,1-2.62.69A15.63,15.63,0,0,1,52,64.66a15.37,15.37,0,0,0-5.93-1.34,5.32,5.32,0,0,0-2,.08,4.83,4.83,0,0,0-1.5.91,21.48,21.48,0,0,0-2.92,2.88,9.55,9.55,0,0,1-3.1,2.91.64.64,0,0,1-.68,0c-.24-.23,0-.64.19-.9l5.67-6.82A5.65,5.65,0,0,1,43,61.08a1.9,1.9,0,0,1,1.77-.18c.64.32,1.16,1.14,1.85,1a1.47,1.47,0,0,0,.67-.57A9.73,9.73,0,0,1,51.24,58C54.93,56.61,57.15,60.39,57.45,63.61Z"/><path class="cls-1" d="M60.09,64.55H60a.37.37,0,0,1-.18,0,.54.54,0,0,1-.22-.4c-.23-1.17-.43-2.35-.58-3.54,0-.29,0-.7.29-.74a.55.55,0,0,1,.41.16c1,.71,1.37,1,1.57,2.17a4.68,4.68,0,0,1-.44,1.45C60.72,64,60.5,64.46,60.09,64.55Z"/><path class="cls-1" d="M64.81,65.16l-.13.08c-.24.14-.54.34-.48.62s.22.31.36.45.18.43,0,.5a.38.38,0,0,1-.29,0l-2.79-1.4a9.44,9.44,0,0,1,2.05-1C64.05,64.26,65.74,64.51,64.81,65.16Z"/><path class="cls-1" d="M74.52,56.84c-1.18,1.89-2.22,4.17-4.31,4.88a.61.61,0,0,1-.46,0,.67.67,0,0,1-.31-.37,15.46,15.46,0,0,1-1.31-3.92,2,2,0,0,0-.26-.77.58.58,0,0,0-.71-.22c-.31.17-.27.64-.19,1l.63,2.68a15.51,15.51,0,0,1,.58,4.38A2.1,2.1,0,0,1,67,64.19a16.2,16.2,0,0,1-3.16-1.93C63.13,61.7,62.56,61,62,60.43c-2.76-2.77-6.38-4.52-9.26-7.16a15.69,15.69,0,0,0-2.51-2.11c-.35-.2-.72-.36-1-.59a6.28,6.28,0,0,1-1.93-3.3,2.17,2.17,0,0,1-.15-1.17,2,2,0,0,1,.35-.65c1.39-2,2.87-3.92,4.42-5.78a3,3,0,0,1,.87-.79,2,2,0,0,1,2.48,1,5,5,0,0,1,.45,2.9,10.12,10.12,0,0,0,0,3c.66,2.81,4,4.14,5.1,6.81.64,1.6.43,3.61,1.63,4.83q1-5.07,2.09-10.13A15.37,15.37,0,0,0,64.94,42,4,4,0,0,1,68.84,45c.38,1.68-.32,3.6.57,5.07.3-1.16.6-2.32.91-3.48.08-.34.37-.77.66-.58a.56.56,0,0,1,.19.43,41.86,41.86,0,0,1,.34,4.61,5.91,5.91,0,0,0,.81-3.1,4,4,0,0,1,.56-2,1.5,1.5,0,0,1,1.77-.62c.6.28,1,1.1,1.66,1,.48-.08.72-.62,1-1,1.66-2.17,4.06.11,4.59,1.94a3.35,3.35,0,0,1,.14,1,2.27,2.27,0,0,1-.34,1.14,4.12,4.12,0,0,1-1.15,1A48.87,48.87,0,0,0,74.52,56.84Z"/><path class="cls-1" d="M99.44,57.89A22.41,22.41,0,0,0,96.11,57s5.55-1.72,1.11-1.4-4.69-1.86-6.46-3.2S78.3,55.11,77.92,55c0,0-.87-.2-1.86-.32l-1.76,2a17,17,0,0,0,1.92,1.67c7,5.36,18,2.08,18,2.08S100.16,58.25,99.44,57.89Zm-15.1-3.67c.17,0,2.88-1.52,5.17,0a13.21,13.21,0,0,0,5,2.18c.86.07-.56,1.14-2.82.42s-4.13-2.56-4.77-2.41S84.82,54.9,84.34,54.22Zm6.31,5.87c-1,.19-3.62.76-3.62.76s-.68.13-.83-.12a1.06,1.06,0,0,1-.06-.7l2.48-.58s.48-1.22,1.41-.89a7.93,7.93,0,0,0,1.93.37A1.81,1.81,0,0,1,90.65,60.09ZM96.16,59l-2.84.38s-.78-.06-.26-.7c0,0,3.14-.85,4.16-.57S96.16,59,96.16,59Z"/><path class="cls-1" d="M67,69.94c-19.62-10.56-35.74-9.19-48-4.51a1.62,1.62,0,0,1,1.42,1.66A3.14,3.14,0,0,1,19.15,69,28,28,0,0,0,13,76.91a28.71,28.71,0,0,0-2.11,5.24A16.65,16.65,0,0,1,18.14,81a34.9,34.9,0,0,0,5.76.42A12.33,12.33,0,0,0,31,77.63a42.48,42.48,0,0,0,3.49-3.87,8.85,8.85,0,0,0,.41,4,18.64,18.64,0,0,0,2.49,4.81c1.79,2.61,3.9,5.1,4.79,8.15a13.89,13.89,0,0,0,4.2-12.45.07.07,0,0,0,0-.06,3.13,3.13,0,0,1,0-1.55c.5-1.21,2.22-1,3.49-1.33,3.54-.89,3.64-6.38,6.67-8.46a1.49,1.49,0,0,1,.93-.33c.75,0,1.15.93,1.15,1.69,0,2.92-3.39,4.32-5.47,6.31a9.17,9.17,0,0,0-2.31,3.84,14.33,14.33,0,0,0-.36,6.92c.68,3.79,2.46,7.27,3.94,10.83,2.31-3.35,4.66-6.74,6-10.6a18.93,18.93,0,0,0,1.17-6.73,13.17,13.17,0,0,0-1.13-5.28,11.58,11.58,0,0,1-1.12-2.77,4,4,0,0,1,.7-3A6.5,6.5,0,0,0,67,69.94Zm-36.57.74a2,2,0,0,0-.95.42,1.48,1.48,0,0,0-.31.71l-.64,2.54a1.28,1.28,0,0,1-.16-1.13,3.35,3.35,0,0,0,.21-1.16c-.05-.39-.39-.79-.77-.71a.76.76,0,0,0-.43.32c-.71.91-.67,2.39-1.65,3-.34-.5.45-1.22.15-1.75s-.8-.3-1.22-.13a2.45,2.45,0,0,0-1.08.73c-.5.69-.34,1.83-1.05,2.29,0-.56,0-1.12,0-1.68a.35.35,0,0,0-.06-.25c-.11-.12-.31,0-.44,0a5.68,5.68,0,0,0-2.24,2.16,12.3,12.3,0,0,1-.58,1.39c-.1.14-.29.28-.42.17s0-.33,0-.5c0-.32-.39-.5-.69-.43a2.64,2.64,0,0,0-.81.47.77.77,0,0,1-.88,0,10.32,10.32,0,0,1,1.17-1.12l-1-.58,3.54-1.21c.5-.17,1.09-.49,1.05-1s-.49-.7-.9-.82c-.15,0-.33-.12-.37-.27s.17-.35.36-.33a1.06,1.06,0,0,1,.51.25,2.6,2.6,0,0,0,2.82,0,.81.81,0,0,0,.3-.31c.26-.58-.7-1.22-.38-1.77,1,.14,1.89,1.32,2.84,1a1.07,1.07,0,0,0,.42-1.58c-.11-.14-.28-.3-.24-.48s.35-.26.54-.14a2.28,2.28,0,0,1,.42.5c.67.85,2,.65,3,.37.31-.09,1.24-.52,1.31,0v.1C31.83,70.16,30.76,70.63,30.46,70.68ZM44.64,80c-.17,0-.33-.12-.5-.16s-.39,0-.42.31a4,4,0,0,0,.07,1.19,1.93,1.93,0,0,0,.52.88,3.34,3.34,0,0,1,.53.76c.19.37,0,.62-.4.6l-.25,0c-.28,0-.41.06-.47.34s-.1.68-.14,1-.08,1-.13,1.47a.93.93,0,0,1-.07.24A3.83,3.83,0,0,1,43,85.45c-.05-.43-.06-.86-.1-1.29a5.59,5.59,0,0,0-.08-.59c-.05-.29-.18-.36-.44-.25a5,5,0,0,0-.52.26l-.19.09a1.57,1.57,0,0,1,.44-.91,4.44,4.44,0,0,1,.38-.37,1.12,1.12,0,0,0,.35-1.11c-.13-.61-.24-1.22-.36-1.83,0,0,0,0,0-.06-.15-.46-.4-.56-.79-.29a4,4,0,0,0-.53.48,2.78,2.78,0,0,1-.68.58.59.59,0,0,1,0-.21,1.41,1.41,0,0,1,.37-.81c.3-.37.62-.73.89-1.12a1.68,1.68,0,0,0,.18-1.57.64.64,0,0,0-.85-.4c-.39.15-.76.32-1.13.5L39,77a.37.37,0,0,1-.23,0,.23.23,0,0,1-.15-.32.56.56,0,0,1,.14-.2,5.07,5.07,0,0,1,2.69-1.39.87.87,0,0,1,.57.1.55.55,0,0,1,.31.37,4.58,4.58,0,0,0,1.55,2.6c.37.35.71.73,1.06,1.11a.61.61,0,0,1,.15.3A.35.35,0,0,1,44.64,80Zm9.41-13a1,1,0,0,1-.27.19A3.39,3.39,0,0,0,52.13,69c-.06.18-.19.41-.36.35s-.11-.39-.1-.62c0-.43-.51-.73-.93-.61a1.77,1.77,0,0,0-.93.86c-.69,1.11-1.26,2.52-2.51,2.85.59-1.1,1.19-2.2,1.79-3.29a.67.67,0,0,0,.09-.62.51.51,0,0,0-.32-.19c-1-.21-1.77.77-2.15,1.69s-.69,2-1.56,2.47l1-3a.75.75,0,0,0,0-.62.63.63,0,0,0-.68-.18c-1.26.28-2,1.57-2.59,2.73a2.41,2.41,0,0,1,0-1.59l-1.69.47c-.19,0-.45.06-.52-.12a.3.3,0,0,1,0-.23c.38-.91,2.13-.61,2.3-1.59.05-.33-.11-.77.16-1a4.05,4.05,0,0,0,1.1.75,1.28,1.28,0,0,0,1.26-.14A1.3,1.3,0,0,0,46,66.29a3.9,3.9,0,0,0-.43-1.21c.46-.18.81.44,1.08.87a2.36,2.36,0,0,0,.92.88,1.28,1.28,0,0,0,1.25.1.7.7,0,0,0,.13-1.11,1.22,1.22,0,0,1,1,.56,2.26,2.26,0,0,0,.91.78c.39.11.91-.2.8-.6s-.35-.48-.23-.71c.34-.13.63.25.9.5.56.54,1.2.41,1.87.39A.53.53,0,0,1,54.05,67Zm5.35,8.1a.18.18,0,0,1-.27.2c-.1-.05-.18-.12-.27-.17-.29-.16-.48-.07-.54.26a1.94,1.94,0,0,0,.64,2,5,5,0,0,1,.7.81.48.48,0,0,1,0,.56c-.13.21-.22.23-.44.1a3.87,3.87,0,0,0-.34-.21c-.29-.15-.37-.08-.37.23a4,4,0,0,0,.36,1.53c.24.62.5,1.24.74,1.87a3.22,3.22,0,0,1,.1.57.47.47,0,0,1-.4-.22c-.12-.14-.23-.3-.35-.45s-.19-.2-.34-.34l-.14.32a6.24,6.24,0,0,0-.18,2.75c.07.59.13,1.19.18,1.78,0,.31-.06.39-.35.32-.55-.12-.65-.06-.66.52a6.75,6.75,0,0,1-1,3.25,1.36,1.36,0,0,0-.11.25l-.11,0c0-.13,0-.26,0-.39a7,7,0,0,1,.38-2.22c.08-.25.15-.5.22-.77-.14-.06-.23,0-.32.08s-.37.26-.57.38a.29.29,0,0,1-.37,0,.36.36,0,0,1-.13-.42,1,1,0,0,1,.2-.35A8.84,8.84,0,0,0,57.42,84l.3-1c0-.15.09-.31-.06-.44s-.31-.06-.46,0a4.31,4.31,0,0,0-1.28.82c-.44.44-.87.89-1.3,1.35a4,4,0,0,1-.81.76,2.3,2.3,0,0,1,.28-1,8.17,8.17,0,0,1,1.26-1.66,6.64,6.64,0,0,1,1.94-1.39,1,1,0,0,0,.62-1.32c-.09-.39-.19-.78-.31-1.16a.48.48,0,0,0-.81-.31,10.53,10.53,0,0,0-.94.71c-.53.42-1.05.85-1.59,1.26a3.92,3.92,0,0,1-1.11.59,2.49,2.49,0,0,1,.48-.79A6,6,0,0,1,55.58,79c.31-.16.63-.3.94-.47a2.91,2.91,0,0,0,1.11-1.12,1.84,1.84,0,0,0,.09-1.47.36.36,0,0,0-.47-.25c-.56.16-1.11.32-1.66.5a2,2,0,0,0-.92.62,1.56,1.56,0,0,1-.74.44.25.25,0,0,1-.3-.1.29.29,0,0,1,0-.35,2,2,0,0,1,.29-.29,7.72,7.72,0,0,1,1.56-.88l1.16-.52.36-.18a1.31,1.31,0,0,0,.76-1.47c0-.16-.06-.32.11-.45a4.44,4.44,0,0,0,1,1.23,7.9,7.9,0,0,1,.51.67A.31.31,0,0,1,59.4,75.09Z"/></svg>