<svg id="Layer_1" data-name="Layer 1" xmlns="http://www.w3.org/2000/svg" xmlns:xlink="http://www.w3.org/1999/xlink" viewBox="0 0 100 100"><defs><style>.cls-1{fill:url(#linear-gradient);}.cls-2{fill:url(#linear-gradient-2);}.cls-3{fill:url(#linear-gradient-3);}.cls-4{fill:url(#linear-gradient-4);}.cls-5{fill:url(#linear-gradient-5);}.cls-6{fill:url(#linear-gradient-6);}.cls-7{fill:url(#linear-gradient-7);}.cls-8{fill:url(#linear-gradient-8);}.cls-9{fill:url(#linear-gradient-9);}.cls-10{fill:url(#linear-gradient-10);}.cls-11{fill:url(#linear-gradient-11);}.cls-12{fill:orange;}</style><linearGradient id="linear-gradient" x1="5.02" y1="-0.17" x2="104.31" y2="85.84" gradientUnits="userSpaceOnUse"><stop offset="0" stop-color="#8a6c46"/><stop offset="0.5" stop-color="#f4cf8e"/><stop offset="1" stop-color="#8a6c46"/></linearGradient><linearGradient id="linear-gradient-2" x1="13.06" y1="-9.44" x2="112.34" y2="76.57" xlink:href="#linear-gradient"/><linearGradient id="linear-gradient-3" x1="-24.16" y1="33.52" x2="75.13" y2="119.53" xlink:href="#linear-gradient"/><linearGradient id="linear-gradient-4" x1="2.7" y1="2.51" x2="101.99" y2="88.52" xlink:href="#linear-gradient"/><linearGradient id="linear-gradient-5" x1="-10.69" y1="17.97" x2="88.6" y2="103.98" xlink:href="#linear-gradient"/><linearGradient id="linear-gradient-6" x1="-3.26" y1="9.39" x2="96.02" y2="95.4" xlink:href="#linear-gradient"/><linearGradient id="linear-gradient-7" x1="50.43" y1="78.8" x2="60.79" y2="87.77" xlink:href="#linear-gradient"/><linearGradient id="linear-gradient-8" x1="-1.26" y1="7.09" x2="98.02" y2="93.1" xlink:href="#linear-gradient"/><linearGradient id="linear-gradient-9" x1="25.96" y1="-24.34" x2="78.77" y2="21.41" xlink:href="#linear-gradient"/><linearGradient id="linear-gradient-10" x1="19.93" y1="-17.38" x2="119.22" y2="68.63" xlink:href="#linear-gradient"/><linearGradient id="linear-gradient-11" x1="2.7" y1="2.51" x2="101.98" y2="88.52" xlink:href="#linear-gradient"/></defs><path class="cls-1" d="M50,5.5C38.57,1.08,24.59,5.16,18,14,10.9,23.4,9.79,35,15.56,42.24,17.19,21.33,29.21,9.83,50,5.5Z"/><path class="cls-2" d="M80.67,36.6c-1.48-2.88-3.68-7-3.68-7-9.25-16.83-29.41-18.64-48.52-7C47.64,17.49,67.94,19.65,80.67,36.6Z"/><path class="cls-3" d="M23.28,83C22,82.51,20,81.64,20,81.64s0,1,3.1,5.06h0c9.29,11.71,20.14,13,31.77,2.17C42.64,90.5,32.79,87.41,23.28,83Z"/><path class="cls-4" d="M96.53,55.41c9.13,23.53-3.46,34.75-28.45,32.11C92.56,87.27,97.62,59,96.53,55.41Z"/><path class="cls-5" d="M46.35,76.36a28.44,28.44,0,0,0,6.19-.55C44.08,74.43,7.45,53.36,40.65,25.68L34,28.27h0C25.2,32,20,38.4,19.49,48c-.57,10.31,3.7,18.22,12.4,23.88a27.74,27.74,0,0,0,10.22,4H38.94c-2.8,0-4.43.83-16.84-4.18C2.39,60.4,4.09,37.81,4.09,36.2a17.42,17.42,0,0,0-2.85,7.64c-2.19,14.29.23,23.78,10.81,29.92C26,80.63,33.9,83.22,46.35,76.36Z"/><path class="cls-6" d="M44.7,51h0S38.14,66.11,51,68.59l.13,0,.42.07h0a16.66,16.66,0,0,0,4.87,0l.11,0C66.53,67.55,68.24,57,68.24,57,67.94,59.8,48.3,69.19,44.7,51Z"/><path class="cls-7" d="M55.61,83.29Z"/><path class="cls-8" d="M73.55,41.43a11.19,11.19,0,0,0-6.1-6,15.86,15.86,0,0,1,2.6,5h0C74.92,58,65.31,75.47,50.55,84c5.76-.85,5.11-.71,5.06-.69C78.47,78.82,82.65,61.08,73.55,41.43Z"/><path class="cls-9" d="M66.1,10.43Z"/><path class="cls-10" d="M84.64,63.55a10.35,10.35,0,0,0,3.07-3C101,42.77,100.2,17.21,74.74,9.32c-4-1-8.57,1.07-8.64,1.11S97.51,20.17,84.64,63.55Z"/><path class="cls-11" d="M57.07,32.46c-6.58-3-12.87-1.95-18.2,2.78-4.07,3.62-6.11,8.15-3.46,13.82,8.78-13.21,20.32-13.29,28.39-.38a13.44,13.44,0,0,0,1.48,1.82c.09.24.77-1.92.84-3.07h0C66.56,40.13,63.39,35.36,57.07,32.46Z"/><path class="cls-12" d="M50,5.5C38.57,1.08,24.59,5.16,18,14,10.9,23.4,9.79,35,15.56,42.24,17.19,21.33,29.21,9.83,50,5.5Z"/><path class="cls-12" d="M80.67,36.6c-1.48-2.88-3.68-7-3.68-7-9.25-16.83-29.41-18.64-48.52-7C47.64,17.49,67.94,19.65,80.67,36.6Z"/><path class="cls-12" d="M23.28,83C22,82.51,20,81.64,20,81.64s0,1,3.1,5.06h0c9.29,11.71,20.14,13,31.77,2.17C42.64,90.5,32.79,87.41,23.28,83Z"/><path class="cls-12" d="M96.53,55.41c9.13,23.53-3.46,34.75-28.45,32.11C92.56,87.27,97.62,59,96.53,55.41Z"/><path class="cls-12" d="M46.35,76.36a28.44,28.44,0,0,0,6.19-.55C44.08,74.43,7.45,53.36,40.65,25.68L34,28.27h0C25.2,32,20,38.4,19.49,48c-.57,10.31,3.7,18.22,12.4,23.88a27.74,27.74,0,0,0,10.22,4H38.94c-2.8,0-4.43.83-16.84-4.18C2.39,60.4,4.09,37.81,4.09,36.2a17.42,17.42,0,0,0-2.85,7.64c-2.19,14.29.23,23.78,10.81,29.92C26,80.63,33.9,83.22,46.35,76.36Z"/><path class="cls-12" d="M44.7,51h0S38.14,66.11,51,68.59l.13,0,.42.07h0a16.66,16.66,0,0,0,4.87,0l.11,0C66.53,67.55,68.24,57,68.24,57,67.94,59.8,48.3,69.19,44.7,51Z"/><path class="cls-12" d="M55.61,83.29Z"/><path class="cls-12" d="M73.55,41.43a11.19,11.19,0,0,0-6.1-6,15.86,15.86,0,0,1,2.6,5h0C74.92,58,65.31,75.47,50.55,84c5.76-.85,5.11-.71,5.06-.69C78.47,78.82,82.65,61.08,73.55,41.43Z"/><path class="cls-12" d="M66.1,10.43Z"/><path class="cls-12" d="M84.64,63.55a10.35,10.35,0,0,0,3.07-3C101,42.77,100.2,17.21,74.74,9.32c-4-1-8.57,1.07-8.64,1.11S97.51,20.17,84.64,63.55Z"/><path class="cls-12" d="M57.07,32.46c-6.58-3-12.87-1.95-18.2,2.78-4.07,3.62-6.11,8.15-3.46,13.82,8.78-13.21,20.32-13.29,28.39-.38a13.44,13.44,0,0,0,1.48,1.82c.09.24.77-1.92.84-3.07h0C66.56,40.13,63.39,35.36,57.07,32.46Z"/></svg>